<?xml version="1.0" encoding="UTF-8" standalone="no"?>
<svg width="25px" height="15px" viewBox="0 0 25 15" version="1.1" xmlns="http://www.w3.org/2000/svg" xmlns:xlink="http://www.w3.org/1999/xlink">
    <defs></defs>
    <g stroke="none" stroke-width="1" fill="none" fill-rule="evenodd" stroke-linecap="round" stroke-linejoin="round">
        <g transform="translate(-1101.000000, -517.000000)" stroke="#CC475D">
            <g transform="translate(161.000000, 247.000000)">
                <path d="M964,277.5 C964,277.5 958.852,284 952.5,284 C946.148,284 941,277.5 941,277.5 C941,277.5 946.148,271 952.5,271 C958.852,271 964,277.5 964,277.5 L964,277.5 Z M956.5,277.5 C956.5,279.709 954.709,281.5 952.5,281.5 C950.291,281.5 948.5,279.709 948.5,277.5 C948.5,275.29 950.291,273.5 952.5,273.5 C954.709,273.5 956.5,275.29 956.5,277.5 L956.5,277.5 Z"></path>
            </g>
        </g>
    </g>
</svg>