<?xml version="1.0" encoding="UTF-8" standalone="no"?>
<svg width="25px" height="20px" viewBox="0 0 25 20" version="1.1" xmlns="http://www.w3.org/2000/svg" xmlns:xlink="http://www.w3.org/1999/xlink">
    <defs></defs>
    <g stroke="none" stroke-width="1" fill="none" fill-rule="evenodd" stroke-linecap="round" stroke-linejoin="round">
        <g transform="translate(-589.000000, -589.000000)" stroke="#CC475D">
            <g transform="translate(161.000000, 247.000000)">
                <path d="M448.018,348.038 C450.457,349.802 452,351.75 452,351.75 C452,351.75 446.852,358.25 440.5,358.25 C439.461,358.25 438.455,358.077 437.499,357.785 M432.968,355.451 C430.537,353.69 429,351.75 429,351.75 C429,351.75 434.148,345.25 440.5,345.25 C441.36,345.25 442.198,345.369 443.004,345.575 M436.5,351.75 C436.5,349.541 438.291,347.75 440.5,347.75 M444.5,351.75 C444.5,353.959 442.709,355.75 440.5,355.75 M450.25,342 L430.75,361.5"></path>
            </g>
        </g>
    </g>
</svg>